M48
;DRILL file {KiCad 4.0.2-stable} date Monday, September 05, 2016 'PMt' 12:23:47 PM
;FORMAT={-:-/ absolute / inch / decimal}
FMAT,2
INCH,TZ
T1C0.016
T2C0.031
T3C0.039
T4C0.040
%
G90
G05
M72
T1
X6.Y-2.9
X6.2Y-4.
T2
X4.7Y-3.15
X4.7Y-3.25
X4.7Y-3.35
X4.7Y-3.45
X4.7Y-3.55
X4.7Y-3.65
X4.7Y-3.75
X4.7Y-3.85
X5.Y-3.15
X5.Y-3.25
X5.Y-3.35
X5.Y-3.45
X5.Y-3.55
X5.Y-3.65
X5.Y-3.75
X5.Y-3.85
X5.95Y-3.25
X5.95Y-3.85
X6.05Y-3.25
X6.05Y-3.85
X6.15Y-3.25
X6.15Y-3.85
X6.25Y-3.25
X6.25Y-3.85
X6.35Y-3.25
X6.35Y-3.85
T3
X5.3Y-2.85
X5.3Y-3.05
X5.3Y-3.25
X5.3Y-3.45
X5.3Y-3.65
X5.3Y-3.85
X5.3Y-4.05
X5.3Y-4.25
X5.7Y-2.85
X5.7Y-3.05
X5.7Y-3.25
X5.7Y-3.45
X5.7Y-3.65
X5.7Y-3.85
X5.7Y-4.05
X5.7Y-4.25
T4
X4.45Y-3.3
X4.45Y-3.4
X4.45Y-3.5
X4.45Y-3.6
X4.45Y-3.7
T0
M30
