G04 #@! TF.FileFunction,Copper,L1,Top,Signal*
%FSLAX46Y46*%
G04 Gerber Fmt 4.6, Leading zero omitted, Abs format (unit mm)*
G04 Created by KiCad (PCBNEW 4.0.2-stable) date Monday, September 05, 2016 'PMt' 12:23:40 PM*
%MOMM*%
G01*
G04 APERTURE LIST*
%ADD10C,0.100000*%
%ADD11R,2.032000X1.727200*%
%ADD12O,2.032000X1.727200*%
%ADD13C,1.998980*%
%ADD14O,1.524000X2.524000*%
%ADD15O,1.600000X1.600000*%
%ADD16C,0.600000*%
%ADD17C,0.400000*%
%ADD18C,0.250000*%
%ADD19C,0.254000*%
G04 APERTURE END LIST*
D10*
D11*
X113030000Y-93980000D03*
D12*
X113030000Y-91440000D03*
X113030000Y-88900000D03*
X113030000Y-86360000D03*
X113030000Y-83820000D03*
D13*
X134620000Y-72390000D03*
X144780000Y-72390000D03*
X134620000Y-77470000D03*
X144780000Y-77470000D03*
X134620000Y-82550000D03*
X144780000Y-82550000D03*
X134620000Y-87630000D03*
X144780000Y-87630000D03*
X134620000Y-92710000D03*
X144780000Y-92710000D03*
X134620000Y-97790000D03*
X144780000Y-97790000D03*
X134620000Y-102870000D03*
X144780000Y-102870000D03*
X134620000Y-107950000D03*
X144780000Y-107950000D03*
D14*
X151130000Y-97790000D03*
X153670000Y-97790000D03*
X156210000Y-97790000D03*
X158750000Y-97790000D03*
X161290000Y-97790000D03*
X161290000Y-82550000D03*
X158750000Y-82550000D03*
X156210000Y-82550000D03*
X153670000Y-82550000D03*
X151130000Y-82550000D03*
D15*
X127000000Y-97790000D03*
X127000000Y-95250000D03*
X127000000Y-92710000D03*
X127000000Y-90170000D03*
X127000000Y-87630000D03*
X127000000Y-85090000D03*
X127000000Y-82550000D03*
X127000000Y-80010000D03*
X119380000Y-80010000D03*
X119380000Y-82550000D03*
X119380000Y-85090000D03*
X119380000Y-87630000D03*
X119380000Y-90170000D03*
X119380000Y-92710000D03*
X119380000Y-95250000D03*
X119380000Y-97790000D03*
D16*
X152400000Y-73660000D03*
X157480000Y-101600000D03*
D17*
X119380000Y-97790000D02*
X119380000Y-106680000D01*
X156210000Y-101600000D02*
X156210000Y-97790000D01*
X147320000Y-110490000D02*
X156210000Y-101600000D01*
X123190000Y-110490000D02*
X147320000Y-110490000D01*
X119380000Y-106680000D02*
X123190000Y-110490000D01*
X119380000Y-82550000D02*
X120650000Y-82550000D01*
X156210000Y-74930000D02*
X156210000Y-82550000D01*
X151130000Y-69850000D02*
X156210000Y-74930000D01*
X128270000Y-69850000D02*
X151130000Y-69850000D01*
X123190000Y-74930000D02*
X128270000Y-69850000D01*
X123190000Y-80010000D02*
X123190000Y-74930000D01*
X120650000Y-82550000D02*
X123190000Y-80010000D01*
X113030000Y-93980000D02*
X111760000Y-93980000D01*
X116840000Y-82550000D02*
X119380000Y-82550000D01*
X114300000Y-80010000D02*
X116840000Y-82550000D01*
X111760000Y-80010000D02*
X114300000Y-80010000D01*
X110490000Y-81280000D02*
X111760000Y-80010000D01*
X110490000Y-92710000D02*
X110490000Y-81280000D01*
X111760000Y-93980000D02*
X110490000Y-92710000D01*
X113030000Y-93980000D02*
X113030000Y-95250000D01*
X115570000Y-97790000D02*
X119380000Y-97790000D01*
X113030000Y-95250000D02*
X115570000Y-97790000D01*
D18*
X113030000Y-88900000D02*
X115570000Y-88900000D01*
X118110000Y-92710000D02*
X119380000Y-92710000D01*
X116840000Y-91440000D02*
X118110000Y-92710000D01*
X116840000Y-90170000D02*
X116840000Y-91440000D01*
X115570000Y-88900000D02*
X116840000Y-90170000D01*
X113030000Y-86360000D02*
X115570000Y-86360000D01*
X116840000Y-87630000D02*
X119380000Y-87630000D01*
X115570000Y-86360000D02*
X116840000Y-87630000D01*
X113030000Y-83820000D02*
X115570000Y-83820000D01*
X116840000Y-85090000D02*
X119380000Y-85090000D01*
X115570000Y-83820000D02*
X116840000Y-85090000D01*
X134620000Y-72390000D02*
X133350000Y-72390000D01*
X130810000Y-78740000D02*
X127000000Y-82550000D01*
X130810000Y-74930000D02*
X130810000Y-78740000D01*
X133350000Y-72390000D02*
X130810000Y-74930000D01*
X144780000Y-72390000D02*
X151130000Y-72390000D01*
X151130000Y-72390000D02*
X152400000Y-73660000D01*
X134620000Y-77470000D02*
X127000000Y-85090000D01*
X144780000Y-77470000D02*
X144780000Y-78740000D01*
X148590000Y-82550000D02*
X151130000Y-82550000D01*
X144780000Y-78740000D02*
X148590000Y-82550000D01*
X134620000Y-82550000D02*
X132080000Y-82550000D01*
X129540000Y-87630000D02*
X127000000Y-87630000D01*
X130810000Y-86360000D02*
X129540000Y-87630000D01*
X130810000Y-83820000D02*
X130810000Y-86360000D01*
X132080000Y-82550000D02*
X130810000Y-83820000D01*
X144780000Y-82550000D02*
X144780000Y-83820000D01*
X151130000Y-85090000D02*
X153670000Y-82550000D01*
X146050000Y-85090000D02*
X151130000Y-85090000D01*
X144780000Y-83820000D02*
X146050000Y-85090000D01*
X134620000Y-87630000D02*
X132080000Y-87630000D01*
X129540000Y-90170000D02*
X127000000Y-90170000D01*
X132080000Y-87630000D02*
X129540000Y-90170000D01*
X144780000Y-87630000D02*
X147320000Y-87630000D01*
X151130000Y-91440000D02*
X151130000Y-97790000D01*
X147320000Y-87630000D02*
X151130000Y-91440000D01*
X134620000Y-92710000D02*
X127000000Y-92710000D01*
X144780000Y-92710000D02*
X142240000Y-92710000D01*
X153670000Y-99060000D02*
X153670000Y-97790000D01*
X152400000Y-100330000D02*
X153670000Y-99060000D01*
X142240000Y-100330000D02*
X152400000Y-100330000D01*
X140970000Y-99060000D02*
X142240000Y-100330000D01*
X140970000Y-93980000D02*
X140970000Y-99060000D01*
X142240000Y-92710000D02*
X140970000Y-93980000D01*
X134620000Y-97790000D02*
X130810000Y-97790000D01*
X128270000Y-95250000D02*
X127000000Y-95250000D01*
X130810000Y-97790000D02*
X128270000Y-95250000D01*
X134620000Y-102870000D02*
X128270000Y-102870000D01*
X127000000Y-101600000D02*
X127000000Y-97790000D01*
X128270000Y-102870000D02*
X127000000Y-101600000D01*
X161290000Y-86360000D02*
X161290000Y-82550000D01*
X157480000Y-90170000D02*
X161290000Y-86360000D01*
X157480000Y-101600000D02*
X157480000Y-90170000D01*
X134620000Y-107950000D02*
X127000000Y-107950000D01*
X120650000Y-95250000D02*
X119380000Y-95250000D01*
X121920000Y-96520000D02*
X120650000Y-95250000D01*
X121920000Y-102870000D02*
X121920000Y-96520000D01*
X127000000Y-107950000D02*
X121920000Y-102870000D01*
D19*
G36*
X164390000Y-111050000D02*
X109930000Y-111050000D01*
X109930000Y-98139039D01*
X117988096Y-98139039D01*
X118148959Y-98527423D01*
X118524866Y-98942389D01*
X119030959Y-99181914D01*
X119253000Y-99060629D01*
X119253000Y-97917000D01*
X119507000Y-97917000D01*
X119507000Y-99060629D01*
X119729041Y-99181914D01*
X120235134Y-98942389D01*
X120611041Y-98527423D01*
X120771904Y-98139039D01*
X120649915Y-97917000D01*
X119507000Y-97917000D01*
X119253000Y-97917000D01*
X118110085Y-97917000D01*
X117988096Y-98139039D01*
X109930000Y-98139039D01*
X109930000Y-94265750D01*
X111379000Y-94265750D01*
X111379000Y-94969910D01*
X111475673Y-95203299D01*
X111654302Y-95381927D01*
X111887691Y-95478600D01*
X112744250Y-95478600D01*
X112903000Y-95319850D01*
X112903000Y-94107000D01*
X113157000Y-94107000D01*
X113157000Y-95319850D01*
X113315750Y-95478600D01*
X114172309Y-95478600D01*
X114405698Y-95381927D01*
X114584327Y-95203299D01*
X114681000Y-94969910D01*
X114681000Y-94265750D01*
X114522250Y-94107000D01*
X113157000Y-94107000D01*
X112903000Y-94107000D01*
X111537750Y-94107000D01*
X111379000Y-94265750D01*
X109930000Y-94265750D01*
X109930000Y-83820000D01*
X111346655Y-83820000D01*
X111460729Y-84393489D01*
X111785585Y-84879670D01*
X112100366Y-85090000D01*
X111785585Y-85300330D01*
X111460729Y-85786511D01*
X111346655Y-86360000D01*
X111460729Y-86933489D01*
X111785585Y-87419670D01*
X112100366Y-87630000D01*
X111785585Y-87840330D01*
X111460729Y-88326511D01*
X111346655Y-88900000D01*
X111460729Y-89473489D01*
X111785585Y-89959670D01*
X112100366Y-90170000D01*
X111785585Y-90380330D01*
X111460729Y-90866511D01*
X111346655Y-91440000D01*
X111460729Y-92013489D01*
X111785585Y-92499670D01*
X111807780Y-92514500D01*
X111654302Y-92578073D01*
X111475673Y-92756701D01*
X111379000Y-92990090D01*
X111379000Y-93694250D01*
X111537750Y-93853000D01*
X112903000Y-93853000D01*
X112903000Y-93833000D01*
X113157000Y-93833000D01*
X113157000Y-93853000D01*
X114522250Y-93853000D01*
X114681000Y-93694250D01*
X114681000Y-92990090D01*
X114584327Y-92756701D01*
X114405698Y-92578073D01*
X114252220Y-92514500D01*
X114274415Y-92499670D01*
X114599271Y-92013489D01*
X114713345Y-91440000D01*
X114599271Y-90866511D01*
X114274415Y-90380330D01*
X113959634Y-90170000D01*
X114274415Y-89959670D01*
X114474648Y-89660000D01*
X115255198Y-89660000D01*
X116080000Y-90484802D01*
X116080000Y-91440000D01*
X116137852Y-91730839D01*
X116302599Y-91977401D01*
X117572599Y-93247401D01*
X117819160Y-93412148D01*
X118110000Y-93470000D01*
X118167005Y-93470000D01*
X118337189Y-93724698D01*
X118719275Y-93980000D01*
X118337189Y-94235302D01*
X118026120Y-94700849D01*
X117916887Y-95250000D01*
X118026120Y-95799151D01*
X118337189Y-96264698D01*
X118741703Y-96534986D01*
X118524866Y-96637611D01*
X118148959Y-97052577D01*
X117988096Y-97440961D01*
X118110085Y-97663000D01*
X119253000Y-97663000D01*
X119253000Y-97643000D01*
X119507000Y-97643000D01*
X119507000Y-97663000D01*
X120649915Y-97663000D01*
X120771904Y-97440961D01*
X120611041Y-97052577D01*
X120235134Y-96637611D01*
X120018297Y-96534986D01*
X120422811Y-96264698D01*
X120489736Y-96164538D01*
X121160000Y-96834802D01*
X121160000Y-102870000D01*
X121217852Y-103160839D01*
X121382599Y-103407401D01*
X126462599Y-108487401D01*
X126709161Y-108652148D01*
X127000000Y-108710000D01*
X133165504Y-108710000D01*
X133233538Y-108874655D01*
X133692927Y-109334846D01*
X134293453Y-109584206D01*
X134943694Y-109584774D01*
X135544655Y-109336462D01*
X136004846Y-108877073D01*
X136254206Y-108276547D01*
X136254208Y-108273694D01*
X143145226Y-108273694D01*
X143393538Y-108874655D01*
X143852927Y-109334846D01*
X144453453Y-109584206D01*
X145103694Y-109584774D01*
X145704655Y-109336462D01*
X146164846Y-108877073D01*
X146414206Y-108276547D01*
X146414774Y-107626306D01*
X146166462Y-107025345D01*
X145707073Y-106565154D01*
X145106547Y-106315794D01*
X144456306Y-106315226D01*
X143855345Y-106563538D01*
X143395154Y-107022927D01*
X143145794Y-107623453D01*
X143145226Y-108273694D01*
X136254208Y-108273694D01*
X136254774Y-107626306D01*
X136006462Y-107025345D01*
X135547073Y-106565154D01*
X134946547Y-106315794D01*
X134296306Y-106315226D01*
X133695345Y-106563538D01*
X133235154Y-107022927D01*
X133165779Y-107190000D01*
X127314802Y-107190000D01*
X122680000Y-102555198D01*
X122680000Y-96520000D01*
X122647179Y-96355000D01*
X122622148Y-96229160D01*
X122457401Y-95982599D01*
X121187401Y-94712599D01*
X120940839Y-94547852D01*
X120650000Y-94490000D01*
X120592995Y-94490000D01*
X120422811Y-94235302D01*
X120040725Y-93980000D01*
X120422811Y-93724698D01*
X120733880Y-93259151D01*
X120843113Y-92710000D01*
X120733880Y-92160849D01*
X120422811Y-91695302D01*
X120040725Y-91440000D01*
X120422811Y-91184698D01*
X120733880Y-90719151D01*
X120843113Y-90170000D01*
X120733880Y-89620849D01*
X120422811Y-89155302D01*
X120040725Y-88900000D01*
X120422811Y-88644698D01*
X120733880Y-88179151D01*
X120843113Y-87630000D01*
X120733880Y-87080849D01*
X120422811Y-86615302D01*
X120040725Y-86360000D01*
X120422811Y-86104698D01*
X120733880Y-85639151D01*
X120843113Y-85090000D01*
X120733880Y-84540849D01*
X120422811Y-84075302D01*
X120018297Y-83805014D01*
X120235134Y-83702389D01*
X120611041Y-83287423D01*
X120771904Y-82899039D01*
X120649915Y-82677000D01*
X119507000Y-82677000D01*
X119507000Y-82697000D01*
X119253000Y-82697000D01*
X119253000Y-82677000D01*
X118110085Y-82677000D01*
X117988096Y-82899039D01*
X118148959Y-83287423D01*
X118524866Y-83702389D01*
X118741703Y-83805014D01*
X118337189Y-84075302D01*
X118167005Y-84330000D01*
X117154802Y-84330000D01*
X116107401Y-83282599D01*
X115860839Y-83117852D01*
X115570000Y-83060000D01*
X114474648Y-83060000D01*
X114274415Y-82760330D01*
X113788234Y-82435474D01*
X113214745Y-82321400D01*
X112845255Y-82321400D01*
X112271766Y-82435474D01*
X111785585Y-82760330D01*
X111460729Y-83246511D01*
X111346655Y-83820000D01*
X109930000Y-83820000D01*
X109930000Y-80010000D01*
X117916887Y-80010000D01*
X118026120Y-80559151D01*
X118337189Y-81024698D01*
X118741703Y-81294986D01*
X118524866Y-81397611D01*
X118148959Y-81812577D01*
X117988096Y-82200961D01*
X118110085Y-82423000D01*
X119253000Y-82423000D01*
X119253000Y-82403000D01*
X119507000Y-82403000D01*
X119507000Y-82423000D01*
X120649915Y-82423000D01*
X120771904Y-82200961D01*
X120611041Y-81812577D01*
X120235134Y-81397611D01*
X120018297Y-81294986D01*
X120422811Y-81024698D01*
X120733880Y-80559151D01*
X120843113Y-80010000D01*
X125536887Y-80010000D01*
X125646120Y-80559151D01*
X125957189Y-81024698D01*
X126339275Y-81280000D01*
X125957189Y-81535302D01*
X125646120Y-82000849D01*
X125536887Y-82550000D01*
X125646120Y-83099151D01*
X125957189Y-83564698D01*
X126339275Y-83820000D01*
X125957189Y-84075302D01*
X125646120Y-84540849D01*
X125536887Y-85090000D01*
X125646120Y-85639151D01*
X125957189Y-86104698D01*
X126339275Y-86360000D01*
X125957189Y-86615302D01*
X125646120Y-87080849D01*
X125536887Y-87630000D01*
X125646120Y-88179151D01*
X125957189Y-88644698D01*
X126339275Y-88900000D01*
X125957189Y-89155302D01*
X125646120Y-89620849D01*
X125536887Y-90170000D01*
X125646120Y-90719151D01*
X125957189Y-91184698D01*
X126339275Y-91440000D01*
X125957189Y-91695302D01*
X125646120Y-92160849D01*
X125536887Y-92710000D01*
X125646120Y-93259151D01*
X125957189Y-93724698D01*
X126339275Y-93980000D01*
X125957189Y-94235302D01*
X125646120Y-94700849D01*
X125536887Y-95250000D01*
X125646120Y-95799151D01*
X125957189Y-96264698D01*
X126339275Y-96520000D01*
X125957189Y-96775302D01*
X125646120Y-97240849D01*
X125536887Y-97790000D01*
X125646120Y-98339151D01*
X125957189Y-98804698D01*
X126240000Y-98993667D01*
X126240000Y-101600000D01*
X126297852Y-101890839D01*
X126462599Y-102137401D01*
X127732599Y-103407401D01*
X127979160Y-103572148D01*
X128270000Y-103630000D01*
X133165504Y-103630000D01*
X133233538Y-103794655D01*
X133692927Y-104254846D01*
X134293453Y-104504206D01*
X134943694Y-104504774D01*
X135544655Y-104256462D01*
X136004846Y-103797073D01*
X136254206Y-103196547D01*
X136254208Y-103193694D01*
X143145226Y-103193694D01*
X143393538Y-103794655D01*
X143852927Y-104254846D01*
X144453453Y-104504206D01*
X145103694Y-104504774D01*
X145704655Y-104256462D01*
X146164846Y-103797073D01*
X146414206Y-103196547D01*
X146414774Y-102546306D01*
X146166462Y-101945345D01*
X145707073Y-101485154D01*
X145106547Y-101235794D01*
X144456306Y-101235226D01*
X143855345Y-101483538D01*
X143395154Y-101942927D01*
X143145794Y-102543453D01*
X143145226Y-103193694D01*
X136254208Y-103193694D01*
X136254774Y-102546306D01*
X136006462Y-101945345D01*
X135547073Y-101485154D01*
X134946547Y-101235794D01*
X134296306Y-101235226D01*
X133695345Y-101483538D01*
X133235154Y-101942927D01*
X133165779Y-102110000D01*
X128584802Y-102110000D01*
X127760000Y-101285198D01*
X127760000Y-98993667D01*
X128042811Y-98804698D01*
X128353880Y-98339151D01*
X128463113Y-97790000D01*
X128353880Y-97240849D01*
X128042811Y-96775302D01*
X127660725Y-96520000D01*
X128042811Y-96264698D01*
X128109736Y-96164538D01*
X130272599Y-98327401D01*
X130519160Y-98492148D01*
X130567414Y-98501746D01*
X130810000Y-98550000D01*
X133165504Y-98550000D01*
X133233538Y-98714655D01*
X133692927Y-99174846D01*
X134293453Y-99424206D01*
X134943694Y-99424774D01*
X135544655Y-99176462D01*
X136004846Y-98717073D01*
X136254206Y-98116547D01*
X136254774Y-97466306D01*
X136006462Y-96865345D01*
X135547073Y-96405154D01*
X134946547Y-96155794D01*
X134296306Y-96155226D01*
X133695345Y-96403538D01*
X133235154Y-96862927D01*
X133165779Y-97030000D01*
X131124802Y-97030000D01*
X128807401Y-94712599D01*
X128560839Y-94547852D01*
X128270000Y-94490000D01*
X128212995Y-94490000D01*
X128042811Y-94235302D01*
X127660725Y-93980000D01*
X128042811Y-93724698D01*
X128212995Y-93470000D01*
X133165504Y-93470000D01*
X133233538Y-93634655D01*
X133692927Y-94094846D01*
X134293453Y-94344206D01*
X134943694Y-94344774D01*
X135544655Y-94096462D01*
X135661320Y-93980000D01*
X140210000Y-93980000D01*
X140210000Y-99060000D01*
X140267852Y-99350839D01*
X140432599Y-99597401D01*
X141702599Y-100867401D01*
X141949160Y-101032148D01*
X142240000Y-101090000D01*
X152400000Y-101090000D01*
X152690839Y-101032148D01*
X152937401Y-100867401D01*
X154182600Y-99622202D01*
X154204609Y-99617824D01*
X154657828Y-99314992D01*
X154949298Y-98878778D01*
X154967941Y-98941941D01*
X155311974Y-99367630D01*
X155792723Y-99629260D01*
X155866930Y-99644220D01*
X156083000Y-99521720D01*
X156083000Y-97917000D01*
X156063000Y-97917000D01*
X156063000Y-97663000D01*
X156083000Y-97663000D01*
X156083000Y-96058280D01*
X155866930Y-95935780D01*
X155792723Y-95950740D01*
X155311974Y-96212370D01*
X154967941Y-96638059D01*
X154949298Y-96701222D01*
X154657828Y-96265008D01*
X154204609Y-95962176D01*
X153670000Y-95855836D01*
X153135391Y-95962176D01*
X152682172Y-96265008D01*
X152400000Y-96687307D01*
X152117828Y-96265008D01*
X151890000Y-96112778D01*
X151890000Y-91440000D01*
X151832148Y-91149161D01*
X151667401Y-90902599D01*
X147857401Y-87092599D01*
X147610839Y-86927852D01*
X147320000Y-86870000D01*
X146234496Y-86870000D01*
X146166462Y-86705345D01*
X145707073Y-86245154D01*
X145106547Y-85995794D01*
X144456306Y-85995226D01*
X143855345Y-86243538D01*
X143395154Y-86702927D01*
X143145794Y-87303453D01*
X143145226Y-87953694D01*
X143393538Y-88554655D01*
X143852927Y-89014846D01*
X144453453Y-89264206D01*
X145103694Y-89264774D01*
X145704655Y-89016462D01*
X146164846Y-88557073D01*
X146234221Y-88390000D01*
X147005198Y-88390000D01*
X150370000Y-91754802D01*
X150370000Y-96112778D01*
X150142172Y-96265008D01*
X149839340Y-96718227D01*
X149733000Y-97252836D01*
X149733000Y-98327164D01*
X149839340Y-98861773D01*
X150142172Y-99314992D01*
X150523818Y-99570000D01*
X142554802Y-99570000D01*
X141730000Y-98745198D01*
X141730000Y-98113694D01*
X143145226Y-98113694D01*
X143393538Y-98714655D01*
X143852927Y-99174846D01*
X144453453Y-99424206D01*
X145103694Y-99424774D01*
X145704655Y-99176462D01*
X146164846Y-98717073D01*
X146414206Y-98116547D01*
X146414774Y-97466306D01*
X146166462Y-96865345D01*
X145707073Y-96405154D01*
X145106547Y-96155794D01*
X144456306Y-96155226D01*
X143855345Y-96403538D01*
X143395154Y-96862927D01*
X143145794Y-97463453D01*
X143145226Y-98113694D01*
X141730000Y-98113694D01*
X141730000Y-94294802D01*
X142554802Y-93470000D01*
X143325504Y-93470000D01*
X143393538Y-93634655D01*
X143852927Y-94094846D01*
X144453453Y-94344206D01*
X145103694Y-94344774D01*
X145704655Y-94096462D01*
X146164846Y-93637073D01*
X146414206Y-93036547D01*
X146414774Y-92386306D01*
X146166462Y-91785345D01*
X145707073Y-91325154D01*
X145106547Y-91075794D01*
X144456306Y-91075226D01*
X143855345Y-91323538D01*
X143395154Y-91782927D01*
X143325779Y-91950000D01*
X142240000Y-91950000D01*
X141949160Y-92007852D01*
X141702599Y-92172599D01*
X140432599Y-93442599D01*
X140267852Y-93689161D01*
X140210000Y-93980000D01*
X135661320Y-93980000D01*
X136004846Y-93637073D01*
X136254206Y-93036547D01*
X136254774Y-92386306D01*
X136006462Y-91785345D01*
X135547073Y-91325154D01*
X134946547Y-91075794D01*
X134296306Y-91075226D01*
X133695345Y-91323538D01*
X133235154Y-91782927D01*
X133165779Y-91950000D01*
X128212995Y-91950000D01*
X128042811Y-91695302D01*
X127660725Y-91440000D01*
X128042811Y-91184698D01*
X128212995Y-90930000D01*
X129540000Y-90930000D01*
X129830839Y-90872148D01*
X130077401Y-90707401D01*
X132394802Y-88390000D01*
X133165504Y-88390000D01*
X133233538Y-88554655D01*
X133692927Y-89014846D01*
X134293453Y-89264206D01*
X134943694Y-89264774D01*
X135544655Y-89016462D01*
X136004846Y-88557073D01*
X136254206Y-87956547D01*
X136254774Y-87306306D01*
X136006462Y-86705345D01*
X135547073Y-86245154D01*
X134946547Y-85995794D01*
X134296306Y-85995226D01*
X133695345Y-86243538D01*
X133235154Y-86702927D01*
X133165779Y-86870000D01*
X132080000Y-86870000D01*
X131837414Y-86918254D01*
X131789160Y-86927852D01*
X131542599Y-87092599D01*
X129225198Y-89410000D01*
X128212995Y-89410000D01*
X128042811Y-89155302D01*
X127660725Y-88900000D01*
X128042811Y-88644698D01*
X128212995Y-88390000D01*
X129540000Y-88390000D01*
X129830839Y-88332148D01*
X130077401Y-88167401D01*
X131347401Y-86897401D01*
X131512148Y-86650840D01*
X131570000Y-86360000D01*
X131570000Y-84134802D01*
X132394802Y-83310000D01*
X133165504Y-83310000D01*
X133233538Y-83474655D01*
X133692927Y-83934846D01*
X134293453Y-84184206D01*
X134943694Y-84184774D01*
X135544655Y-83936462D01*
X136004846Y-83477073D01*
X136254206Y-82876547D01*
X136254774Y-82226306D01*
X136006462Y-81625345D01*
X135547073Y-81165154D01*
X134946547Y-80915794D01*
X134296306Y-80915226D01*
X133695345Y-81163538D01*
X133235154Y-81622927D01*
X133165779Y-81790000D01*
X132080000Y-81790000D01*
X131789160Y-81847852D01*
X131542599Y-82012599D01*
X130272599Y-83282599D01*
X130107852Y-83529161D01*
X130050000Y-83820000D01*
X130050000Y-86045198D01*
X129225198Y-86870000D01*
X128212995Y-86870000D01*
X128042811Y-86615302D01*
X127660725Y-86360000D01*
X128042811Y-86104698D01*
X128353880Y-85639151D01*
X128463113Y-85090000D01*
X128398688Y-84766114D01*
X134128917Y-79035885D01*
X134293453Y-79104206D01*
X134943694Y-79104774D01*
X135544655Y-78856462D01*
X136004846Y-78397073D01*
X136254206Y-77796547D01*
X136254208Y-77793694D01*
X143145226Y-77793694D01*
X143393538Y-78394655D01*
X143852927Y-78854846D01*
X144059943Y-78940807D01*
X144077852Y-79030839D01*
X144242599Y-79277401D01*
X148052599Y-83087401D01*
X148299161Y-83252148D01*
X148590000Y-83310000D01*
X149777325Y-83310000D01*
X149839340Y-83621773D01*
X150142172Y-84074992D01*
X150523818Y-84330000D01*
X146364802Y-84330000D01*
X145838076Y-83803274D01*
X146164846Y-83477073D01*
X146414206Y-82876547D01*
X146414774Y-82226306D01*
X146166462Y-81625345D01*
X145707073Y-81165154D01*
X145106547Y-80915794D01*
X144456306Y-80915226D01*
X143855345Y-81163538D01*
X143395154Y-81622927D01*
X143145794Y-82223453D01*
X143145226Y-82873694D01*
X143393538Y-83474655D01*
X143852927Y-83934846D01*
X144059943Y-84020807D01*
X144077852Y-84110839D01*
X144242599Y-84357401D01*
X145512599Y-85627401D01*
X145759160Y-85792148D01*
X146050000Y-85850000D01*
X151130000Y-85850000D01*
X151420839Y-85792148D01*
X151667401Y-85627401D01*
X153004462Y-84290340D01*
X153135391Y-84377824D01*
X153670000Y-84484164D01*
X154204609Y-84377824D01*
X154657828Y-84074992D01*
X154949298Y-83638778D01*
X154967941Y-83701941D01*
X155311974Y-84127630D01*
X155792723Y-84389260D01*
X155866930Y-84404220D01*
X156083000Y-84281720D01*
X156083000Y-82677000D01*
X156063000Y-82677000D01*
X156063000Y-82423000D01*
X156083000Y-82423000D01*
X156083000Y-80818280D01*
X156337000Y-80818280D01*
X156337000Y-82423000D01*
X156357000Y-82423000D01*
X156357000Y-82677000D01*
X156337000Y-82677000D01*
X156337000Y-84281720D01*
X156553070Y-84404220D01*
X156627277Y-84389260D01*
X157108026Y-84127630D01*
X157452059Y-83701941D01*
X157470702Y-83638778D01*
X157762172Y-84074992D01*
X158215391Y-84377824D01*
X158750000Y-84484164D01*
X159284609Y-84377824D01*
X159737828Y-84074992D01*
X160020000Y-83652693D01*
X160302172Y-84074992D01*
X160530000Y-84227222D01*
X160530000Y-86045198D01*
X156942599Y-89632599D01*
X156777852Y-89879161D01*
X156720000Y-90170000D01*
X156720000Y-96001201D01*
X156627277Y-95950740D01*
X156553070Y-95935780D01*
X156337000Y-96058280D01*
X156337000Y-97663000D01*
X156357000Y-97663000D01*
X156357000Y-97917000D01*
X156337000Y-97917000D01*
X156337000Y-99521720D01*
X156553070Y-99644220D01*
X156627277Y-99629260D01*
X156720000Y-99578799D01*
X156720000Y-101037537D01*
X156687808Y-101069673D01*
X156545162Y-101413201D01*
X156544838Y-101785167D01*
X156686883Y-102128943D01*
X156949673Y-102392192D01*
X157293201Y-102534838D01*
X157665167Y-102535162D01*
X158008943Y-102393117D01*
X158272192Y-102130327D01*
X158414838Y-101786799D01*
X158415162Y-101414833D01*
X158273117Y-101071057D01*
X158240000Y-101037882D01*
X158240000Y-99622719D01*
X158750000Y-99724164D01*
X159284609Y-99617824D01*
X159737828Y-99314992D01*
X160020000Y-98892693D01*
X160302172Y-99314992D01*
X160755391Y-99617824D01*
X161290000Y-99724164D01*
X161824609Y-99617824D01*
X162277828Y-99314992D01*
X162580660Y-98861773D01*
X162687000Y-98327164D01*
X162687000Y-97252836D01*
X162580660Y-96718227D01*
X162277828Y-96265008D01*
X161824609Y-95962176D01*
X161290000Y-95855836D01*
X160755391Y-95962176D01*
X160302172Y-96265008D01*
X160020000Y-96687307D01*
X159737828Y-96265008D01*
X159284609Y-95962176D01*
X158750000Y-95855836D01*
X158240000Y-95957281D01*
X158240000Y-90484802D01*
X161827401Y-86897401D01*
X161992148Y-86650839D01*
X162050000Y-86360000D01*
X162050000Y-84227222D01*
X162277828Y-84074992D01*
X162580660Y-83621773D01*
X162687000Y-83087164D01*
X162687000Y-82012836D01*
X162580660Y-81478227D01*
X162277828Y-81025008D01*
X161824609Y-80722176D01*
X161290000Y-80615836D01*
X160755391Y-80722176D01*
X160302172Y-81025008D01*
X160020000Y-81447307D01*
X159737828Y-81025008D01*
X159284609Y-80722176D01*
X158750000Y-80615836D01*
X158215391Y-80722176D01*
X157762172Y-81025008D01*
X157470702Y-81461222D01*
X157452059Y-81398059D01*
X157108026Y-80972370D01*
X156627277Y-80710740D01*
X156553070Y-80695780D01*
X156337000Y-80818280D01*
X156083000Y-80818280D01*
X155866930Y-80695780D01*
X155792723Y-80710740D01*
X155311974Y-80972370D01*
X154967941Y-81398059D01*
X154949298Y-81461222D01*
X154657828Y-81025008D01*
X154204609Y-80722176D01*
X153670000Y-80615836D01*
X153135391Y-80722176D01*
X152682172Y-81025008D01*
X152400000Y-81447307D01*
X152117828Y-81025008D01*
X151664609Y-80722176D01*
X151130000Y-80615836D01*
X150595391Y-80722176D01*
X150142172Y-81025008D01*
X149839340Y-81478227D01*
X149777325Y-81790000D01*
X148904802Y-81790000D01*
X145838076Y-78723274D01*
X146164846Y-78397073D01*
X146414206Y-77796547D01*
X146414774Y-77146306D01*
X146166462Y-76545345D01*
X145707073Y-76085154D01*
X145106547Y-75835794D01*
X144456306Y-75835226D01*
X143855345Y-76083538D01*
X143395154Y-76542927D01*
X143145794Y-77143453D01*
X143145226Y-77793694D01*
X136254208Y-77793694D01*
X136254774Y-77146306D01*
X136006462Y-76545345D01*
X135547073Y-76085154D01*
X134946547Y-75835794D01*
X134296306Y-75835226D01*
X133695345Y-76083538D01*
X133235154Y-76542927D01*
X132985794Y-77143453D01*
X132985226Y-77793694D01*
X133054309Y-77960889D01*
X128462595Y-82552603D01*
X128463113Y-82550000D01*
X128398688Y-82226114D01*
X131347401Y-79277401D01*
X131512148Y-79030839D01*
X131570000Y-78740000D01*
X131570000Y-75244802D01*
X133366726Y-73448076D01*
X133692927Y-73774846D01*
X134293453Y-74024206D01*
X134943694Y-74024774D01*
X135544655Y-73776462D01*
X136004846Y-73317073D01*
X136254206Y-72716547D01*
X136254208Y-72713694D01*
X143145226Y-72713694D01*
X143393538Y-73314655D01*
X143852927Y-73774846D01*
X144453453Y-74024206D01*
X145103694Y-74024774D01*
X145704655Y-73776462D01*
X146164846Y-73317073D01*
X146234221Y-73150000D01*
X150815198Y-73150000D01*
X151464878Y-73799680D01*
X151464838Y-73845167D01*
X151606883Y-74188943D01*
X151869673Y-74452192D01*
X152213201Y-74594838D01*
X152585167Y-74595162D01*
X152928943Y-74453117D01*
X153192192Y-74190327D01*
X153334838Y-73846799D01*
X153335162Y-73474833D01*
X153193117Y-73131057D01*
X152930327Y-72867808D01*
X152586799Y-72725162D01*
X152539923Y-72725121D01*
X151667401Y-71852599D01*
X151420839Y-71687852D01*
X151130000Y-71630000D01*
X146234496Y-71630000D01*
X146166462Y-71465345D01*
X145707073Y-71005154D01*
X145106547Y-70755794D01*
X144456306Y-70755226D01*
X143855345Y-71003538D01*
X143395154Y-71462927D01*
X143145794Y-72063453D01*
X143145226Y-72713694D01*
X136254208Y-72713694D01*
X136254774Y-72066306D01*
X136006462Y-71465345D01*
X135547073Y-71005154D01*
X134946547Y-70755794D01*
X134296306Y-70755226D01*
X133695345Y-71003538D01*
X133235154Y-71462927D01*
X133149193Y-71669943D01*
X133107414Y-71678254D01*
X133059160Y-71687852D01*
X132812599Y-71852599D01*
X130272599Y-74392599D01*
X130107852Y-74639161D01*
X130050000Y-74930000D01*
X130050000Y-78425198D01*
X128462595Y-80012603D01*
X128463113Y-80010000D01*
X128353880Y-79460849D01*
X128042811Y-78995302D01*
X127577264Y-78684233D01*
X127028113Y-78575000D01*
X126971887Y-78575000D01*
X126422736Y-78684233D01*
X125957189Y-78995302D01*
X125646120Y-79460849D01*
X125536887Y-80010000D01*
X120843113Y-80010000D01*
X120733880Y-79460849D01*
X120422811Y-78995302D01*
X119957264Y-78684233D01*
X119408113Y-78575000D01*
X119351887Y-78575000D01*
X118802736Y-78684233D01*
X118337189Y-78995302D01*
X118026120Y-79460849D01*
X117916887Y-80010000D01*
X109930000Y-80010000D01*
X109930000Y-69290000D01*
X164390000Y-69290000D01*
X164390000Y-111050000D01*
X164390000Y-111050000D01*
G37*
X164390000Y-111050000D02*
X109930000Y-111050000D01*
X109930000Y-98139039D01*
X117988096Y-98139039D01*
X118148959Y-98527423D01*
X118524866Y-98942389D01*
X119030959Y-99181914D01*
X119253000Y-99060629D01*
X119253000Y-97917000D01*
X119507000Y-97917000D01*
X119507000Y-99060629D01*
X119729041Y-99181914D01*
X120235134Y-98942389D01*
X120611041Y-98527423D01*
X120771904Y-98139039D01*
X120649915Y-97917000D01*
X119507000Y-97917000D01*
X119253000Y-97917000D01*
X118110085Y-97917000D01*
X117988096Y-98139039D01*
X109930000Y-98139039D01*
X109930000Y-94265750D01*
X111379000Y-94265750D01*
X111379000Y-94969910D01*
X111475673Y-95203299D01*
X111654302Y-95381927D01*
X111887691Y-95478600D01*
X112744250Y-95478600D01*
X112903000Y-95319850D01*
X112903000Y-94107000D01*
X113157000Y-94107000D01*
X113157000Y-95319850D01*
X113315750Y-95478600D01*
X114172309Y-95478600D01*
X114405698Y-95381927D01*
X114584327Y-95203299D01*
X114681000Y-94969910D01*
X114681000Y-94265750D01*
X114522250Y-94107000D01*
X113157000Y-94107000D01*
X112903000Y-94107000D01*
X111537750Y-94107000D01*
X111379000Y-94265750D01*
X109930000Y-94265750D01*
X109930000Y-83820000D01*
X111346655Y-83820000D01*
X111460729Y-84393489D01*
X111785585Y-84879670D01*
X112100366Y-85090000D01*
X111785585Y-85300330D01*
X111460729Y-85786511D01*
X111346655Y-86360000D01*
X111460729Y-86933489D01*
X111785585Y-87419670D01*
X112100366Y-87630000D01*
X111785585Y-87840330D01*
X111460729Y-88326511D01*
X111346655Y-88900000D01*
X111460729Y-89473489D01*
X111785585Y-89959670D01*
X112100366Y-90170000D01*
X111785585Y-90380330D01*
X111460729Y-90866511D01*
X111346655Y-91440000D01*
X111460729Y-92013489D01*
X111785585Y-92499670D01*
X111807780Y-92514500D01*
X111654302Y-92578073D01*
X111475673Y-92756701D01*
X111379000Y-92990090D01*
X111379000Y-93694250D01*
X111537750Y-93853000D01*
X112903000Y-93853000D01*
X112903000Y-93833000D01*
X113157000Y-93833000D01*
X113157000Y-93853000D01*
X114522250Y-93853000D01*
X114681000Y-93694250D01*
X114681000Y-92990090D01*
X114584327Y-92756701D01*
X114405698Y-92578073D01*
X114252220Y-92514500D01*
X114274415Y-92499670D01*
X114599271Y-92013489D01*
X114713345Y-91440000D01*
X114599271Y-90866511D01*
X114274415Y-90380330D01*
X113959634Y-90170000D01*
X114274415Y-89959670D01*
X114474648Y-89660000D01*
X115255198Y-89660000D01*
X116080000Y-90484802D01*
X116080000Y-91440000D01*
X116137852Y-91730839D01*
X116302599Y-91977401D01*
X117572599Y-93247401D01*
X117819160Y-93412148D01*
X118110000Y-93470000D01*
X118167005Y-93470000D01*
X118337189Y-93724698D01*
X118719275Y-93980000D01*
X118337189Y-94235302D01*
X118026120Y-94700849D01*
X117916887Y-95250000D01*
X118026120Y-95799151D01*
X118337189Y-96264698D01*
X118741703Y-96534986D01*
X118524866Y-96637611D01*
X118148959Y-97052577D01*
X117988096Y-97440961D01*
X118110085Y-97663000D01*
X119253000Y-97663000D01*
X119253000Y-97643000D01*
X119507000Y-97643000D01*
X119507000Y-97663000D01*
X120649915Y-97663000D01*
X120771904Y-97440961D01*
X120611041Y-97052577D01*
X120235134Y-96637611D01*
X120018297Y-96534986D01*
X120422811Y-96264698D01*
X120489736Y-96164538D01*
X121160000Y-96834802D01*
X121160000Y-102870000D01*
X121217852Y-103160839D01*
X121382599Y-103407401D01*
X126462599Y-108487401D01*
X126709161Y-108652148D01*
X127000000Y-108710000D01*
X133165504Y-108710000D01*
X133233538Y-108874655D01*
X133692927Y-109334846D01*
X134293453Y-109584206D01*
X134943694Y-109584774D01*
X135544655Y-109336462D01*
X136004846Y-108877073D01*
X136254206Y-108276547D01*
X136254208Y-108273694D01*
X143145226Y-108273694D01*
X143393538Y-108874655D01*
X143852927Y-109334846D01*
X144453453Y-109584206D01*
X145103694Y-109584774D01*
X145704655Y-109336462D01*
X146164846Y-108877073D01*
X146414206Y-108276547D01*
X146414774Y-107626306D01*
X146166462Y-107025345D01*
X145707073Y-106565154D01*
X145106547Y-106315794D01*
X144456306Y-106315226D01*
X143855345Y-106563538D01*
X143395154Y-107022927D01*
X143145794Y-107623453D01*
X143145226Y-108273694D01*
X136254208Y-108273694D01*
X136254774Y-107626306D01*
X136006462Y-107025345D01*
X135547073Y-106565154D01*
X134946547Y-106315794D01*
X134296306Y-106315226D01*
X133695345Y-106563538D01*
X133235154Y-107022927D01*
X133165779Y-107190000D01*
X127314802Y-107190000D01*
X122680000Y-102555198D01*
X122680000Y-96520000D01*
X122647179Y-96355000D01*
X122622148Y-96229160D01*
X122457401Y-95982599D01*
X121187401Y-94712599D01*
X120940839Y-94547852D01*
X120650000Y-94490000D01*
X120592995Y-94490000D01*
X120422811Y-94235302D01*
X120040725Y-93980000D01*
X120422811Y-93724698D01*
X120733880Y-93259151D01*
X120843113Y-92710000D01*
X120733880Y-92160849D01*
X120422811Y-91695302D01*
X120040725Y-91440000D01*
X120422811Y-91184698D01*
X120733880Y-90719151D01*
X120843113Y-90170000D01*
X120733880Y-89620849D01*
X120422811Y-89155302D01*
X120040725Y-88900000D01*
X120422811Y-88644698D01*
X120733880Y-88179151D01*
X120843113Y-87630000D01*
X120733880Y-87080849D01*
X120422811Y-86615302D01*
X120040725Y-86360000D01*
X120422811Y-86104698D01*
X120733880Y-85639151D01*
X120843113Y-85090000D01*
X120733880Y-84540849D01*
X120422811Y-84075302D01*
X120018297Y-83805014D01*
X120235134Y-83702389D01*
X120611041Y-83287423D01*
X120771904Y-82899039D01*
X120649915Y-82677000D01*
X119507000Y-82677000D01*
X119507000Y-82697000D01*
X119253000Y-82697000D01*
X119253000Y-82677000D01*
X118110085Y-82677000D01*
X117988096Y-82899039D01*
X118148959Y-83287423D01*
X118524866Y-83702389D01*
X118741703Y-83805014D01*
X118337189Y-84075302D01*
X118167005Y-84330000D01*
X117154802Y-84330000D01*
X116107401Y-83282599D01*
X115860839Y-83117852D01*
X115570000Y-83060000D01*
X114474648Y-83060000D01*
X114274415Y-82760330D01*
X113788234Y-82435474D01*
X113214745Y-82321400D01*
X112845255Y-82321400D01*
X112271766Y-82435474D01*
X111785585Y-82760330D01*
X111460729Y-83246511D01*
X111346655Y-83820000D01*
X109930000Y-83820000D01*
X109930000Y-80010000D01*
X117916887Y-80010000D01*
X118026120Y-80559151D01*
X118337189Y-81024698D01*
X118741703Y-81294986D01*
X118524866Y-81397611D01*
X118148959Y-81812577D01*
X117988096Y-82200961D01*
X118110085Y-82423000D01*
X119253000Y-82423000D01*
X119253000Y-82403000D01*
X119507000Y-82403000D01*
X119507000Y-82423000D01*
X120649915Y-82423000D01*
X120771904Y-82200961D01*
X120611041Y-81812577D01*
X120235134Y-81397611D01*
X120018297Y-81294986D01*
X120422811Y-81024698D01*
X120733880Y-80559151D01*
X120843113Y-80010000D01*
X125536887Y-80010000D01*
X125646120Y-80559151D01*
X125957189Y-81024698D01*
X126339275Y-81280000D01*
X125957189Y-81535302D01*
X125646120Y-82000849D01*
X125536887Y-82550000D01*
X125646120Y-83099151D01*
X125957189Y-83564698D01*
X126339275Y-83820000D01*
X125957189Y-84075302D01*
X125646120Y-84540849D01*
X125536887Y-85090000D01*
X125646120Y-85639151D01*
X125957189Y-86104698D01*
X126339275Y-86360000D01*
X125957189Y-86615302D01*
X125646120Y-87080849D01*
X125536887Y-87630000D01*
X125646120Y-88179151D01*
X125957189Y-88644698D01*
X126339275Y-88900000D01*
X125957189Y-89155302D01*
X125646120Y-89620849D01*
X125536887Y-90170000D01*
X125646120Y-90719151D01*
X125957189Y-91184698D01*
X126339275Y-91440000D01*
X125957189Y-91695302D01*
X125646120Y-92160849D01*
X125536887Y-92710000D01*
X125646120Y-93259151D01*
X125957189Y-93724698D01*
X126339275Y-93980000D01*
X125957189Y-94235302D01*
X125646120Y-94700849D01*
X125536887Y-95250000D01*
X125646120Y-95799151D01*
X125957189Y-96264698D01*
X126339275Y-96520000D01*
X125957189Y-96775302D01*
X125646120Y-97240849D01*
X125536887Y-97790000D01*
X125646120Y-98339151D01*
X125957189Y-98804698D01*
X126240000Y-98993667D01*
X126240000Y-101600000D01*
X126297852Y-101890839D01*
X126462599Y-102137401D01*
X127732599Y-103407401D01*
X127979160Y-103572148D01*
X128270000Y-103630000D01*
X133165504Y-103630000D01*
X133233538Y-103794655D01*
X133692927Y-104254846D01*
X134293453Y-104504206D01*
X134943694Y-104504774D01*
X135544655Y-104256462D01*
X136004846Y-103797073D01*
X136254206Y-103196547D01*
X136254208Y-103193694D01*
X143145226Y-103193694D01*
X143393538Y-103794655D01*
X143852927Y-104254846D01*
X144453453Y-104504206D01*
X145103694Y-104504774D01*
X145704655Y-104256462D01*
X146164846Y-103797073D01*
X146414206Y-103196547D01*
X146414774Y-102546306D01*
X146166462Y-101945345D01*
X145707073Y-101485154D01*
X145106547Y-101235794D01*
X144456306Y-101235226D01*
X143855345Y-101483538D01*
X143395154Y-101942927D01*
X143145794Y-102543453D01*
X143145226Y-103193694D01*
X136254208Y-103193694D01*
X136254774Y-102546306D01*
X136006462Y-101945345D01*
X135547073Y-101485154D01*
X134946547Y-101235794D01*
X134296306Y-101235226D01*
X133695345Y-101483538D01*
X133235154Y-101942927D01*
X133165779Y-102110000D01*
X128584802Y-102110000D01*
X127760000Y-101285198D01*
X127760000Y-98993667D01*
X128042811Y-98804698D01*
X128353880Y-98339151D01*
X128463113Y-97790000D01*
X128353880Y-97240849D01*
X128042811Y-96775302D01*
X127660725Y-96520000D01*
X128042811Y-96264698D01*
X128109736Y-96164538D01*
X130272599Y-98327401D01*
X130519160Y-98492148D01*
X130567414Y-98501746D01*
X130810000Y-98550000D01*
X133165504Y-98550000D01*
X133233538Y-98714655D01*
X133692927Y-99174846D01*
X134293453Y-99424206D01*
X134943694Y-99424774D01*
X135544655Y-99176462D01*
X136004846Y-98717073D01*
X136254206Y-98116547D01*
X136254774Y-97466306D01*
X136006462Y-96865345D01*
X135547073Y-96405154D01*
X134946547Y-96155794D01*
X134296306Y-96155226D01*
X133695345Y-96403538D01*
X133235154Y-96862927D01*
X133165779Y-97030000D01*
X131124802Y-97030000D01*
X128807401Y-94712599D01*
X128560839Y-94547852D01*
X128270000Y-94490000D01*
X128212995Y-94490000D01*
X128042811Y-94235302D01*
X127660725Y-93980000D01*
X128042811Y-93724698D01*
X128212995Y-93470000D01*
X133165504Y-93470000D01*
X133233538Y-93634655D01*
X133692927Y-94094846D01*
X134293453Y-94344206D01*
X134943694Y-94344774D01*
X135544655Y-94096462D01*
X135661320Y-93980000D01*
X140210000Y-93980000D01*
X140210000Y-99060000D01*
X140267852Y-99350839D01*
X140432599Y-99597401D01*
X141702599Y-100867401D01*
X141949160Y-101032148D01*
X142240000Y-101090000D01*
X152400000Y-101090000D01*
X152690839Y-101032148D01*
X152937401Y-100867401D01*
X154182600Y-99622202D01*
X154204609Y-99617824D01*
X154657828Y-99314992D01*
X154949298Y-98878778D01*
X154967941Y-98941941D01*
X155311974Y-99367630D01*
X155792723Y-99629260D01*
X155866930Y-99644220D01*
X156083000Y-99521720D01*
X156083000Y-97917000D01*
X156063000Y-97917000D01*
X156063000Y-97663000D01*
X156083000Y-97663000D01*
X156083000Y-96058280D01*
X155866930Y-95935780D01*
X155792723Y-95950740D01*
X155311974Y-96212370D01*
X154967941Y-96638059D01*
X154949298Y-96701222D01*
X154657828Y-96265008D01*
X154204609Y-95962176D01*
X153670000Y-95855836D01*
X153135391Y-95962176D01*
X152682172Y-96265008D01*
X152400000Y-96687307D01*
X152117828Y-96265008D01*
X151890000Y-96112778D01*
X151890000Y-91440000D01*
X151832148Y-91149161D01*
X151667401Y-90902599D01*
X147857401Y-87092599D01*
X147610839Y-86927852D01*
X147320000Y-86870000D01*
X146234496Y-86870000D01*
X146166462Y-86705345D01*
X145707073Y-86245154D01*
X145106547Y-85995794D01*
X144456306Y-85995226D01*
X143855345Y-86243538D01*
X143395154Y-86702927D01*
X143145794Y-87303453D01*
X143145226Y-87953694D01*
X143393538Y-88554655D01*
X143852927Y-89014846D01*
X144453453Y-89264206D01*
X145103694Y-89264774D01*
X145704655Y-89016462D01*
X146164846Y-88557073D01*
X146234221Y-88390000D01*
X147005198Y-88390000D01*
X150370000Y-91754802D01*
X150370000Y-96112778D01*
X150142172Y-96265008D01*
X149839340Y-96718227D01*
X149733000Y-97252836D01*
X149733000Y-98327164D01*
X149839340Y-98861773D01*
X150142172Y-99314992D01*
X150523818Y-99570000D01*
X142554802Y-99570000D01*
X141730000Y-98745198D01*
X141730000Y-98113694D01*
X143145226Y-98113694D01*
X143393538Y-98714655D01*
X143852927Y-99174846D01*
X144453453Y-99424206D01*
X145103694Y-99424774D01*
X145704655Y-99176462D01*
X146164846Y-98717073D01*
X146414206Y-98116547D01*
X146414774Y-97466306D01*
X146166462Y-96865345D01*
X145707073Y-96405154D01*
X145106547Y-96155794D01*
X144456306Y-96155226D01*
X143855345Y-96403538D01*
X143395154Y-96862927D01*
X143145794Y-97463453D01*
X143145226Y-98113694D01*
X141730000Y-98113694D01*
X141730000Y-94294802D01*
X142554802Y-93470000D01*
X143325504Y-93470000D01*
X143393538Y-93634655D01*
X143852927Y-94094846D01*
X144453453Y-94344206D01*
X145103694Y-94344774D01*
X145704655Y-94096462D01*
X146164846Y-93637073D01*
X146414206Y-93036547D01*
X146414774Y-92386306D01*
X146166462Y-91785345D01*
X145707073Y-91325154D01*
X145106547Y-91075794D01*
X144456306Y-91075226D01*
X143855345Y-91323538D01*
X143395154Y-91782927D01*
X143325779Y-91950000D01*
X142240000Y-91950000D01*
X141949160Y-92007852D01*
X141702599Y-92172599D01*
X140432599Y-93442599D01*
X140267852Y-93689161D01*
X140210000Y-93980000D01*
X135661320Y-93980000D01*
X136004846Y-93637073D01*
X136254206Y-93036547D01*
X136254774Y-92386306D01*
X136006462Y-91785345D01*
X135547073Y-91325154D01*
X134946547Y-91075794D01*
X134296306Y-91075226D01*
X133695345Y-91323538D01*
X133235154Y-91782927D01*
X133165779Y-91950000D01*
X128212995Y-91950000D01*
X128042811Y-91695302D01*
X127660725Y-91440000D01*
X128042811Y-91184698D01*
X128212995Y-90930000D01*
X129540000Y-90930000D01*
X129830839Y-90872148D01*
X130077401Y-90707401D01*
X132394802Y-88390000D01*
X133165504Y-88390000D01*
X133233538Y-88554655D01*
X133692927Y-89014846D01*
X134293453Y-89264206D01*
X134943694Y-89264774D01*
X135544655Y-89016462D01*
X136004846Y-88557073D01*
X136254206Y-87956547D01*
X136254774Y-87306306D01*
X136006462Y-86705345D01*
X135547073Y-86245154D01*
X134946547Y-85995794D01*
X134296306Y-85995226D01*
X133695345Y-86243538D01*
X133235154Y-86702927D01*
X133165779Y-86870000D01*
X132080000Y-86870000D01*
X131837414Y-86918254D01*
X131789160Y-86927852D01*
X131542599Y-87092599D01*
X129225198Y-89410000D01*
X128212995Y-89410000D01*
X128042811Y-89155302D01*
X127660725Y-88900000D01*
X128042811Y-88644698D01*
X128212995Y-88390000D01*
X129540000Y-88390000D01*
X129830839Y-88332148D01*
X130077401Y-88167401D01*
X131347401Y-86897401D01*
X131512148Y-86650840D01*
X131570000Y-86360000D01*
X131570000Y-84134802D01*
X132394802Y-83310000D01*
X133165504Y-83310000D01*
X133233538Y-83474655D01*
X133692927Y-83934846D01*
X134293453Y-84184206D01*
X134943694Y-84184774D01*
X135544655Y-83936462D01*
X136004846Y-83477073D01*
X136254206Y-82876547D01*
X136254774Y-82226306D01*
X136006462Y-81625345D01*
X135547073Y-81165154D01*
X134946547Y-80915794D01*
X134296306Y-80915226D01*
X133695345Y-81163538D01*
X133235154Y-81622927D01*
X133165779Y-81790000D01*
X132080000Y-81790000D01*
X131789160Y-81847852D01*
X131542599Y-82012599D01*
X130272599Y-83282599D01*
X130107852Y-83529161D01*
X130050000Y-83820000D01*
X130050000Y-86045198D01*
X129225198Y-86870000D01*
X128212995Y-86870000D01*
X128042811Y-86615302D01*
X127660725Y-86360000D01*
X128042811Y-86104698D01*
X128353880Y-85639151D01*
X128463113Y-85090000D01*
X128398688Y-84766114D01*
X134128917Y-79035885D01*
X134293453Y-79104206D01*
X134943694Y-79104774D01*
X135544655Y-78856462D01*
X136004846Y-78397073D01*
X136254206Y-77796547D01*
X136254208Y-77793694D01*
X143145226Y-77793694D01*
X143393538Y-78394655D01*
X143852927Y-78854846D01*
X144059943Y-78940807D01*
X144077852Y-79030839D01*
X144242599Y-79277401D01*
X148052599Y-83087401D01*
X148299161Y-83252148D01*
X148590000Y-83310000D01*
X149777325Y-83310000D01*
X149839340Y-83621773D01*
X150142172Y-84074992D01*
X150523818Y-84330000D01*
X146364802Y-84330000D01*
X145838076Y-83803274D01*
X146164846Y-83477073D01*
X146414206Y-82876547D01*
X146414774Y-82226306D01*
X146166462Y-81625345D01*
X145707073Y-81165154D01*
X145106547Y-80915794D01*
X144456306Y-80915226D01*
X143855345Y-81163538D01*
X143395154Y-81622927D01*
X143145794Y-82223453D01*
X143145226Y-82873694D01*
X143393538Y-83474655D01*
X143852927Y-83934846D01*
X144059943Y-84020807D01*
X144077852Y-84110839D01*
X144242599Y-84357401D01*
X145512599Y-85627401D01*
X145759160Y-85792148D01*
X146050000Y-85850000D01*
X151130000Y-85850000D01*
X151420839Y-85792148D01*
X151667401Y-85627401D01*
X153004462Y-84290340D01*
X153135391Y-84377824D01*
X153670000Y-84484164D01*
X154204609Y-84377824D01*
X154657828Y-84074992D01*
X154949298Y-83638778D01*
X154967941Y-83701941D01*
X155311974Y-84127630D01*
X155792723Y-84389260D01*
X155866930Y-84404220D01*
X156083000Y-84281720D01*
X156083000Y-82677000D01*
X156063000Y-82677000D01*
X156063000Y-82423000D01*
X156083000Y-82423000D01*
X156083000Y-80818280D01*
X156337000Y-80818280D01*
X156337000Y-82423000D01*
X156357000Y-82423000D01*
X156357000Y-82677000D01*
X156337000Y-82677000D01*
X156337000Y-84281720D01*
X156553070Y-84404220D01*
X156627277Y-84389260D01*
X157108026Y-84127630D01*
X157452059Y-83701941D01*
X157470702Y-83638778D01*
X157762172Y-84074992D01*
X158215391Y-84377824D01*
X158750000Y-84484164D01*
X159284609Y-84377824D01*
X159737828Y-84074992D01*
X160020000Y-83652693D01*
X160302172Y-84074992D01*
X160530000Y-84227222D01*
X160530000Y-86045198D01*
X156942599Y-89632599D01*
X156777852Y-89879161D01*
X156720000Y-90170000D01*
X156720000Y-96001201D01*
X156627277Y-95950740D01*
X156553070Y-95935780D01*
X156337000Y-96058280D01*
X156337000Y-97663000D01*
X156357000Y-97663000D01*
X156357000Y-97917000D01*
X156337000Y-97917000D01*
X156337000Y-99521720D01*
X156553070Y-99644220D01*
X156627277Y-99629260D01*
X156720000Y-99578799D01*
X156720000Y-101037537D01*
X156687808Y-101069673D01*
X156545162Y-101413201D01*
X156544838Y-101785167D01*
X156686883Y-102128943D01*
X156949673Y-102392192D01*
X157293201Y-102534838D01*
X157665167Y-102535162D01*
X158008943Y-102393117D01*
X158272192Y-102130327D01*
X158414838Y-101786799D01*
X158415162Y-101414833D01*
X158273117Y-101071057D01*
X158240000Y-101037882D01*
X158240000Y-99622719D01*
X158750000Y-99724164D01*
X159284609Y-99617824D01*
X159737828Y-99314992D01*
X160020000Y-98892693D01*
X160302172Y-99314992D01*
X160755391Y-99617824D01*
X161290000Y-99724164D01*
X161824609Y-99617824D01*
X162277828Y-99314992D01*
X162580660Y-98861773D01*
X162687000Y-98327164D01*
X162687000Y-97252836D01*
X162580660Y-96718227D01*
X162277828Y-96265008D01*
X161824609Y-95962176D01*
X161290000Y-95855836D01*
X160755391Y-95962176D01*
X160302172Y-96265008D01*
X160020000Y-96687307D01*
X159737828Y-96265008D01*
X159284609Y-95962176D01*
X158750000Y-95855836D01*
X158240000Y-95957281D01*
X158240000Y-90484802D01*
X161827401Y-86897401D01*
X161992148Y-86650839D01*
X162050000Y-86360000D01*
X162050000Y-84227222D01*
X162277828Y-84074992D01*
X162580660Y-83621773D01*
X162687000Y-83087164D01*
X162687000Y-82012836D01*
X162580660Y-81478227D01*
X162277828Y-81025008D01*
X161824609Y-80722176D01*
X161290000Y-80615836D01*
X160755391Y-80722176D01*
X160302172Y-81025008D01*
X160020000Y-81447307D01*
X159737828Y-81025008D01*
X159284609Y-80722176D01*
X158750000Y-80615836D01*
X158215391Y-80722176D01*
X157762172Y-81025008D01*
X157470702Y-81461222D01*
X157452059Y-81398059D01*
X157108026Y-80972370D01*
X156627277Y-80710740D01*
X156553070Y-80695780D01*
X156337000Y-80818280D01*
X156083000Y-80818280D01*
X155866930Y-80695780D01*
X155792723Y-80710740D01*
X155311974Y-80972370D01*
X154967941Y-81398059D01*
X154949298Y-81461222D01*
X154657828Y-81025008D01*
X154204609Y-80722176D01*
X153670000Y-80615836D01*
X153135391Y-80722176D01*
X152682172Y-81025008D01*
X152400000Y-81447307D01*
X152117828Y-81025008D01*
X151664609Y-80722176D01*
X151130000Y-80615836D01*
X150595391Y-80722176D01*
X150142172Y-81025008D01*
X149839340Y-81478227D01*
X149777325Y-81790000D01*
X148904802Y-81790000D01*
X145838076Y-78723274D01*
X146164846Y-78397073D01*
X146414206Y-77796547D01*
X146414774Y-77146306D01*
X146166462Y-76545345D01*
X145707073Y-76085154D01*
X145106547Y-75835794D01*
X144456306Y-75835226D01*
X143855345Y-76083538D01*
X143395154Y-76542927D01*
X143145794Y-77143453D01*
X143145226Y-77793694D01*
X136254208Y-77793694D01*
X136254774Y-77146306D01*
X136006462Y-76545345D01*
X135547073Y-76085154D01*
X134946547Y-75835794D01*
X134296306Y-75835226D01*
X133695345Y-76083538D01*
X133235154Y-76542927D01*
X132985794Y-77143453D01*
X132985226Y-77793694D01*
X133054309Y-77960889D01*
X128462595Y-82552603D01*
X128463113Y-82550000D01*
X128398688Y-82226114D01*
X131347401Y-79277401D01*
X131512148Y-79030839D01*
X131570000Y-78740000D01*
X131570000Y-75244802D01*
X133366726Y-73448076D01*
X133692927Y-73774846D01*
X134293453Y-74024206D01*
X134943694Y-74024774D01*
X135544655Y-73776462D01*
X136004846Y-73317073D01*
X136254206Y-72716547D01*
X136254208Y-72713694D01*
X143145226Y-72713694D01*
X143393538Y-73314655D01*
X143852927Y-73774846D01*
X144453453Y-74024206D01*
X145103694Y-74024774D01*
X145704655Y-73776462D01*
X146164846Y-73317073D01*
X146234221Y-73150000D01*
X150815198Y-73150000D01*
X151464878Y-73799680D01*
X151464838Y-73845167D01*
X151606883Y-74188943D01*
X151869673Y-74452192D01*
X152213201Y-74594838D01*
X152585167Y-74595162D01*
X152928943Y-74453117D01*
X153192192Y-74190327D01*
X153334838Y-73846799D01*
X153335162Y-73474833D01*
X153193117Y-73131057D01*
X152930327Y-72867808D01*
X152586799Y-72725162D01*
X152539923Y-72725121D01*
X151667401Y-71852599D01*
X151420839Y-71687852D01*
X151130000Y-71630000D01*
X146234496Y-71630000D01*
X146166462Y-71465345D01*
X145707073Y-71005154D01*
X145106547Y-70755794D01*
X144456306Y-70755226D01*
X143855345Y-71003538D01*
X143395154Y-71462927D01*
X143145794Y-72063453D01*
X143145226Y-72713694D01*
X136254208Y-72713694D01*
X136254774Y-72066306D01*
X136006462Y-71465345D01*
X135547073Y-71005154D01*
X134946547Y-70755794D01*
X134296306Y-70755226D01*
X133695345Y-71003538D01*
X133235154Y-71462927D01*
X133149193Y-71669943D01*
X133107414Y-71678254D01*
X133059160Y-71687852D01*
X132812599Y-71852599D01*
X130272599Y-74392599D01*
X130107852Y-74639161D01*
X130050000Y-74930000D01*
X130050000Y-78425198D01*
X128462595Y-80012603D01*
X128463113Y-80010000D01*
X128353880Y-79460849D01*
X128042811Y-78995302D01*
X127577264Y-78684233D01*
X127028113Y-78575000D01*
X126971887Y-78575000D01*
X126422736Y-78684233D01*
X125957189Y-78995302D01*
X125646120Y-79460849D01*
X125536887Y-80010000D01*
X120843113Y-80010000D01*
X120733880Y-79460849D01*
X120422811Y-78995302D01*
X119957264Y-78684233D01*
X119408113Y-78575000D01*
X119351887Y-78575000D01*
X118802736Y-78684233D01*
X118337189Y-78995302D01*
X118026120Y-79460849D01*
X117916887Y-80010000D01*
X109930000Y-80010000D01*
X109930000Y-69290000D01*
X164390000Y-69290000D01*
X164390000Y-111050000D01*
M02*
