G04 #@! TF.FileFunction,Soldermask,Bot*
%FSLAX46Y46*%
G04 Gerber Fmt 4.6, Leading zero omitted, Abs format (unit mm)*
G04 Created by KiCad (PCBNEW 4.0.2-stable) date Monday, September 05, 2016 'PMt' 12:23:40 PM*
%MOMM*%
G01*
G04 APERTURE LIST*
%ADD10C,0.100000*%
%ADD11R,2.432000X2.127200*%
%ADD12O,2.432000X2.127200*%
%ADD13C,2.398980*%
%ADD14O,1.924000X2.924000*%
%ADD15O,2.000000X2.000000*%
G04 APERTURE END LIST*
D10*
D11*
X113030000Y-93980000D03*
D12*
X113030000Y-91440000D03*
X113030000Y-88900000D03*
X113030000Y-86360000D03*
X113030000Y-83820000D03*
D13*
X134620000Y-72390000D03*
X144780000Y-72390000D03*
X134620000Y-77470000D03*
X144780000Y-77470000D03*
X134620000Y-82550000D03*
X144780000Y-82550000D03*
X134620000Y-87630000D03*
X144780000Y-87630000D03*
X134620000Y-92710000D03*
X144780000Y-92710000D03*
X134620000Y-97790000D03*
X144780000Y-97790000D03*
X134620000Y-102870000D03*
X144780000Y-102870000D03*
X134620000Y-107950000D03*
X144780000Y-107950000D03*
D14*
X151130000Y-97790000D03*
X153670000Y-97790000D03*
X156210000Y-97790000D03*
X158750000Y-97790000D03*
X161290000Y-97790000D03*
X161290000Y-82550000D03*
X158750000Y-82550000D03*
X156210000Y-82550000D03*
X153670000Y-82550000D03*
X151130000Y-82550000D03*
D15*
X127000000Y-97790000D03*
X127000000Y-95250000D03*
X127000000Y-92710000D03*
X127000000Y-90170000D03*
X127000000Y-87630000D03*
X127000000Y-85090000D03*
X127000000Y-82550000D03*
X127000000Y-80010000D03*
X119380000Y-80010000D03*
X119380000Y-82550000D03*
X119380000Y-85090000D03*
X119380000Y-87630000D03*
X119380000Y-90170000D03*
X119380000Y-92710000D03*
X119380000Y-95250000D03*
X119380000Y-97790000D03*
M02*
