G04 #@! TF.FileFunction,Legend,Top*
%FSLAX46Y46*%
G04 Gerber Fmt 4.6, Leading zero omitted, Abs format (unit mm)*
G04 Created by KiCad (PCBNEW 4.0.2-stable) date Monday, September 05, 2016 'PMt' 12:23:40 PM*
%MOMM*%
G01*
G04 APERTURE LIST*
%ADD10C,0.100000*%
%ADD11C,0.250000*%
%ADD12C,0.150000*%
G04 APERTURE END LIST*
D10*
D11*
X112165714Y-70192381D02*
X112832381Y-70192381D01*
X112403809Y-71192381D01*
X113213333Y-70811429D02*
X113975238Y-70811429D01*
X114403809Y-71144762D02*
X114546666Y-71192381D01*
X114784762Y-71192381D01*
X114880000Y-71144762D01*
X114927619Y-71097143D01*
X114975238Y-71001905D01*
X114975238Y-70906667D01*
X114927619Y-70811429D01*
X114880000Y-70763810D01*
X114784762Y-70716190D01*
X114594285Y-70668571D01*
X114499047Y-70620952D01*
X114451428Y-70573333D01*
X114403809Y-70478095D01*
X114403809Y-70382857D01*
X114451428Y-70287619D01*
X114499047Y-70240000D01*
X114594285Y-70192381D01*
X114832381Y-70192381D01*
X114975238Y-70240000D01*
X115784762Y-71144762D02*
X115689524Y-71192381D01*
X115499047Y-71192381D01*
X115403809Y-71144762D01*
X115356190Y-71049524D01*
X115356190Y-70668571D01*
X115403809Y-70573333D01*
X115499047Y-70525714D01*
X115689524Y-70525714D01*
X115784762Y-70573333D01*
X115832381Y-70668571D01*
X115832381Y-70763810D01*
X115356190Y-70859048D01*
X116689524Y-70525714D02*
X116689524Y-71335238D01*
X116641905Y-71430476D01*
X116594286Y-71478095D01*
X116499047Y-71525714D01*
X116356190Y-71525714D01*
X116260952Y-71478095D01*
X116689524Y-71144762D02*
X116594286Y-71192381D01*
X116403809Y-71192381D01*
X116308571Y-71144762D01*
X116260952Y-71097143D01*
X116213333Y-71001905D01*
X116213333Y-70716190D01*
X116260952Y-70620952D01*
X116308571Y-70573333D01*
X116403809Y-70525714D01*
X116594286Y-70525714D01*
X116689524Y-70573333D01*
X117165714Y-71192381D02*
X117165714Y-70525714D01*
X117165714Y-70620952D02*
X117213333Y-70573333D01*
X117308571Y-70525714D01*
X117451429Y-70525714D01*
X117546667Y-70573333D01*
X117594286Y-70668571D01*
X117594286Y-71192381D01*
X117594286Y-70668571D02*
X117641905Y-70573333D01*
X117737143Y-70525714D01*
X117880000Y-70525714D01*
X117975238Y-70573333D01*
X118022857Y-70668571D01*
X118022857Y-71192381D01*
X118880000Y-71144762D02*
X118784762Y-71192381D01*
X118594285Y-71192381D01*
X118499047Y-71144762D01*
X118451428Y-71049524D01*
X118451428Y-70668571D01*
X118499047Y-70573333D01*
X118594285Y-70525714D01*
X118784762Y-70525714D01*
X118880000Y-70573333D01*
X118927619Y-70668571D01*
X118927619Y-70763810D01*
X118451428Y-70859048D01*
X119356190Y-70525714D02*
X119356190Y-71192381D01*
X119356190Y-70620952D02*
X119403809Y-70573333D01*
X119499047Y-70525714D01*
X119641905Y-70525714D01*
X119737143Y-70573333D01*
X119784762Y-70668571D01*
X119784762Y-71192381D01*
X120118095Y-70525714D02*
X120499047Y-70525714D01*
X120260952Y-70192381D02*
X120260952Y-71049524D01*
X120308571Y-71144762D01*
X120403809Y-71192381D01*
X120499047Y-71192381D01*
X121594286Y-71192381D02*
X121594286Y-70192381D01*
X121832381Y-70192381D01*
X121975239Y-70240000D01*
X122070477Y-70335238D01*
X122118096Y-70430476D01*
X122165715Y-70620952D01*
X122165715Y-70763810D01*
X122118096Y-70954286D01*
X122070477Y-71049524D01*
X121975239Y-71144762D01*
X121832381Y-71192381D01*
X121594286Y-71192381D01*
X122594286Y-71192381D02*
X122594286Y-70525714D01*
X122594286Y-70192381D02*
X122546667Y-70240000D01*
X122594286Y-70287619D01*
X122641905Y-70240000D01*
X122594286Y-70192381D01*
X122594286Y-70287619D01*
X123022857Y-71144762D02*
X123118095Y-71192381D01*
X123308571Y-71192381D01*
X123403810Y-71144762D01*
X123451429Y-71049524D01*
X123451429Y-71001905D01*
X123403810Y-70906667D01*
X123308571Y-70859048D01*
X123165714Y-70859048D01*
X123070476Y-70811429D01*
X123022857Y-70716190D01*
X123022857Y-70668571D01*
X123070476Y-70573333D01*
X123165714Y-70525714D01*
X123308571Y-70525714D01*
X123403810Y-70573333D01*
X123880000Y-70525714D02*
X123880000Y-71525714D01*
X123880000Y-70573333D02*
X123975238Y-70525714D01*
X124165715Y-70525714D01*
X124260953Y-70573333D01*
X124308572Y-70620952D01*
X124356191Y-70716190D01*
X124356191Y-71001905D01*
X124308572Y-71097143D01*
X124260953Y-71144762D01*
X124165715Y-71192381D01*
X123975238Y-71192381D01*
X123880000Y-71144762D01*
X124927619Y-71192381D02*
X124832381Y-71144762D01*
X124784762Y-71049524D01*
X124784762Y-70192381D01*
X125737144Y-71192381D02*
X125737144Y-70668571D01*
X125689525Y-70573333D01*
X125594287Y-70525714D01*
X125403810Y-70525714D01*
X125308572Y-70573333D01*
X125737144Y-71144762D02*
X125641906Y-71192381D01*
X125403810Y-71192381D01*
X125308572Y-71144762D01*
X125260953Y-71049524D01*
X125260953Y-70954286D01*
X125308572Y-70859048D01*
X125403810Y-70811429D01*
X125641906Y-70811429D01*
X125737144Y-70763810D01*
X126118096Y-70525714D02*
X126356191Y-71192381D01*
X126594287Y-70525714D02*
X126356191Y-71192381D01*
X126260953Y-71430476D01*
X126213334Y-71478095D01*
X126118096Y-71525714D01*
X117856191Y-71842381D02*
X118189524Y-72842381D01*
X118522858Y-71842381D01*
X119380001Y-72842381D02*
X118808572Y-72842381D01*
X119094286Y-72842381D02*
X119094286Y-71842381D01*
X118999048Y-71985238D01*
X118903810Y-72080476D01*
X118808572Y-72128095D01*
X119808572Y-72747143D02*
X119856191Y-72794762D01*
X119808572Y-72842381D01*
X119760953Y-72794762D01*
X119808572Y-72747143D01*
X119808572Y-72842381D01*
X120475238Y-71842381D02*
X120570477Y-71842381D01*
X120665715Y-71890000D01*
X120713334Y-71937619D01*
X120760953Y-72032857D01*
X120808572Y-72223333D01*
X120808572Y-72461429D01*
X120760953Y-72651905D01*
X120713334Y-72747143D01*
X120665715Y-72794762D01*
X120570477Y-72842381D01*
X120475238Y-72842381D01*
X120380000Y-72794762D01*
X120332381Y-72747143D01*
X120284762Y-72651905D01*
X120237143Y-72461429D01*
X120237143Y-72223333D01*
X120284762Y-72032857D01*
X120332381Y-71937619D01*
X120380000Y-71890000D01*
X120475238Y-71842381D01*
X112784762Y-73968571D02*
X112927619Y-74016190D01*
X112975238Y-74063810D01*
X113022857Y-74159048D01*
X113022857Y-74301905D01*
X112975238Y-74397143D01*
X112927619Y-74444762D01*
X112832381Y-74492381D01*
X112451428Y-74492381D01*
X112451428Y-73492381D01*
X112784762Y-73492381D01*
X112880000Y-73540000D01*
X112927619Y-73587619D01*
X112975238Y-73682857D01*
X112975238Y-73778095D01*
X112927619Y-73873333D01*
X112880000Y-73920952D01*
X112784762Y-73968571D01*
X112451428Y-73968571D01*
X113451428Y-74397143D02*
X113499047Y-74444762D01*
X113451428Y-74492381D01*
X113403809Y-74444762D01*
X113451428Y-74397143D01*
X113451428Y-74492381D01*
X115260952Y-74397143D02*
X115213333Y-74444762D01*
X115070476Y-74492381D01*
X114975238Y-74492381D01*
X114832380Y-74444762D01*
X114737142Y-74349524D01*
X114689523Y-74254286D01*
X114641904Y-74063810D01*
X114641904Y-73920952D01*
X114689523Y-73730476D01*
X114737142Y-73635238D01*
X114832380Y-73540000D01*
X114975238Y-73492381D01*
X115070476Y-73492381D01*
X115213333Y-73540000D01*
X115260952Y-73587619D01*
X116118095Y-74492381D02*
X116118095Y-73968571D01*
X116070476Y-73873333D01*
X115975238Y-73825714D01*
X115784761Y-73825714D01*
X115689523Y-73873333D01*
X116118095Y-74444762D02*
X116022857Y-74492381D01*
X115784761Y-74492381D01*
X115689523Y-74444762D01*
X115641904Y-74349524D01*
X115641904Y-74254286D01*
X115689523Y-74159048D01*
X115784761Y-74111429D01*
X116022857Y-74111429D01*
X116118095Y-74063810D01*
X116594285Y-74492381D02*
X116594285Y-73825714D01*
X116594285Y-74016190D02*
X116641904Y-73920952D01*
X116689523Y-73873333D01*
X116784761Y-73825714D01*
X116880000Y-73825714D01*
X117213333Y-74492381D02*
X117213333Y-73825714D01*
X117213333Y-74016190D02*
X117260952Y-73920952D01*
X117308571Y-73873333D01*
X117403809Y-73825714D01*
X117499048Y-73825714D01*
X117832381Y-74492381D02*
X117832381Y-73825714D01*
X117832381Y-73492381D02*
X117784762Y-73540000D01*
X117832381Y-73587619D01*
X117880000Y-73540000D01*
X117832381Y-73492381D01*
X117832381Y-73587619D01*
X118213333Y-73825714D02*
X118737143Y-73825714D01*
X118213333Y-74492381D01*
X118737143Y-74492381D01*
X119546667Y-74492381D02*
X119546667Y-73968571D01*
X119499048Y-73873333D01*
X119403810Y-73825714D01*
X119213333Y-73825714D01*
X119118095Y-73873333D01*
X119546667Y-74444762D02*
X119451429Y-74492381D01*
X119213333Y-74492381D01*
X119118095Y-74444762D01*
X119070476Y-74349524D01*
X119070476Y-74254286D01*
X119118095Y-74159048D01*
X119213333Y-74111429D01*
X119451429Y-74111429D01*
X119546667Y-74063810D01*
X120165714Y-74492381D02*
X120070476Y-74444762D01*
X120022857Y-74349524D01*
X120022857Y-73492381D01*
X120927620Y-74444762D02*
X120832382Y-74492381D01*
X120641905Y-74492381D01*
X120546667Y-74444762D01*
X120499048Y-74349524D01*
X120499048Y-73968571D01*
X120546667Y-73873333D01*
X120641905Y-73825714D01*
X120832382Y-73825714D01*
X120927620Y-73873333D01*
X120975239Y-73968571D01*
X120975239Y-74063810D01*
X120499048Y-74159048D01*
X121356191Y-74444762D02*
X121451429Y-74492381D01*
X121641905Y-74492381D01*
X121737144Y-74444762D01*
X121784763Y-74349524D01*
X121784763Y-74301905D01*
X121737144Y-74206667D01*
X121641905Y-74159048D01*
X121499048Y-74159048D01*
X121403810Y-74111429D01*
X121356191Y-74016190D01*
X121356191Y-73968571D01*
X121403810Y-73873333D01*
X121499048Y-73825714D01*
X121641905Y-73825714D01*
X121737144Y-73873333D01*
X122927620Y-73587619D02*
X122975239Y-73540000D01*
X123070477Y-73492381D01*
X123308573Y-73492381D01*
X123403811Y-73540000D01*
X123451430Y-73587619D01*
X123499049Y-73682857D01*
X123499049Y-73778095D01*
X123451430Y-73920952D01*
X122880001Y-74492381D01*
X123499049Y-74492381D01*
X124118096Y-73492381D02*
X124213335Y-73492381D01*
X124308573Y-73540000D01*
X124356192Y-73587619D01*
X124403811Y-73682857D01*
X124451430Y-73873333D01*
X124451430Y-74111429D01*
X124403811Y-74301905D01*
X124356192Y-74397143D01*
X124308573Y-74444762D01*
X124213335Y-74492381D01*
X124118096Y-74492381D01*
X124022858Y-74444762D01*
X123975239Y-74397143D01*
X123927620Y-74301905D01*
X123880001Y-74111429D01*
X123880001Y-73873333D01*
X123927620Y-73682857D01*
X123975239Y-73587619D01*
X124022858Y-73540000D01*
X124118096Y-73492381D01*
X125403811Y-74492381D02*
X124832382Y-74492381D01*
X125118096Y-74492381D02*
X125118096Y-73492381D01*
X125022858Y-73635238D01*
X124927620Y-73730476D01*
X124832382Y-73778095D01*
X126260954Y-73492381D02*
X126070477Y-73492381D01*
X125975239Y-73540000D01*
X125927620Y-73587619D01*
X125832382Y-73730476D01*
X125784763Y-73920952D01*
X125784763Y-74301905D01*
X125832382Y-74397143D01*
X125880001Y-74444762D01*
X125975239Y-74492381D01*
X126165716Y-74492381D01*
X126260954Y-74444762D01*
X126308573Y-74397143D01*
X126356192Y-74301905D01*
X126356192Y-74063810D01*
X126308573Y-73968571D01*
X126260954Y-73920952D01*
X126165716Y-73873333D01*
X125975239Y-73873333D01*
X125880001Y-73920952D01*
X125832382Y-73968571D01*
X125784763Y-74063810D01*
D12*
X114580000Y-93980000D02*
X114580000Y-95530000D01*
X114580000Y-95530000D02*
X111480000Y-95530000D01*
X111480000Y-95530000D02*
X111480000Y-93980000D01*
X111760000Y-92710000D02*
X111760000Y-82550000D01*
X111760000Y-82550000D02*
X114300000Y-82550000D01*
X114300000Y-82550000D02*
X114300000Y-92710000D01*
X111760000Y-92710000D02*
X114300000Y-92710000D01*
X137160000Y-71120000D02*
X142240000Y-71120000D01*
X142240000Y-71120000D02*
X142240000Y-73660000D01*
X142240000Y-73660000D02*
X137160000Y-73660000D01*
X137160000Y-73660000D02*
X137160000Y-71120000D01*
X137160000Y-72390000D02*
X135890000Y-72390000D01*
X142240000Y-72390000D02*
X143510000Y-72390000D01*
X137160000Y-76200000D02*
X142240000Y-76200000D01*
X142240000Y-76200000D02*
X142240000Y-78740000D01*
X142240000Y-78740000D02*
X137160000Y-78740000D01*
X137160000Y-78740000D02*
X137160000Y-76200000D01*
X137160000Y-77470000D02*
X135890000Y-77470000D01*
X142240000Y-77470000D02*
X143510000Y-77470000D01*
X137160000Y-81280000D02*
X142240000Y-81280000D01*
X142240000Y-81280000D02*
X142240000Y-83820000D01*
X142240000Y-83820000D02*
X137160000Y-83820000D01*
X137160000Y-83820000D02*
X137160000Y-81280000D01*
X137160000Y-82550000D02*
X135890000Y-82550000D01*
X142240000Y-82550000D02*
X143510000Y-82550000D01*
X137160000Y-86360000D02*
X142240000Y-86360000D01*
X142240000Y-86360000D02*
X142240000Y-88900000D01*
X142240000Y-88900000D02*
X137160000Y-88900000D01*
X137160000Y-88900000D02*
X137160000Y-86360000D01*
X137160000Y-87630000D02*
X135890000Y-87630000D01*
X142240000Y-87630000D02*
X143510000Y-87630000D01*
X137160000Y-91440000D02*
X142240000Y-91440000D01*
X142240000Y-91440000D02*
X142240000Y-93980000D01*
X142240000Y-93980000D02*
X137160000Y-93980000D01*
X137160000Y-93980000D02*
X137160000Y-91440000D01*
X137160000Y-92710000D02*
X135890000Y-92710000D01*
X142240000Y-92710000D02*
X143510000Y-92710000D01*
X137160000Y-96520000D02*
X142240000Y-96520000D01*
X142240000Y-96520000D02*
X142240000Y-99060000D01*
X142240000Y-99060000D02*
X137160000Y-99060000D01*
X137160000Y-99060000D02*
X137160000Y-96520000D01*
X137160000Y-97790000D02*
X135890000Y-97790000D01*
X142240000Y-97790000D02*
X143510000Y-97790000D01*
X137160000Y-101600000D02*
X142240000Y-101600000D01*
X142240000Y-101600000D02*
X142240000Y-104140000D01*
X142240000Y-104140000D02*
X137160000Y-104140000D01*
X137160000Y-104140000D02*
X137160000Y-101600000D01*
X137160000Y-102870000D02*
X135890000Y-102870000D01*
X142240000Y-102870000D02*
X143510000Y-102870000D01*
X137160000Y-106680000D02*
X142240000Y-106680000D01*
X142240000Y-106680000D02*
X142240000Y-109220000D01*
X142240000Y-109220000D02*
X137160000Y-109220000D01*
X137160000Y-109220000D02*
X137160000Y-106680000D01*
X137160000Y-107950000D02*
X135890000Y-107950000D01*
X142240000Y-107950000D02*
X143510000Y-107950000D01*
X160657214Y-95170000D02*
G75*
G03X160657214Y-95170000I-447214J0D01*
G01*
X153210000Y-85170000D02*
X152210000Y-90170000D01*
X152210000Y-90170000D02*
X151210000Y-95170000D01*
X151210000Y-95170000D02*
X158210000Y-95170000D01*
X158210000Y-95170000D02*
X159210000Y-90170000D01*
X160210000Y-85170000D02*
X159210000Y-90170000D01*
X159210000Y-90170000D02*
X152210000Y-90170000D01*
X153210000Y-85170000D02*
X160210000Y-85170000D01*
X162510000Y-99770000D02*
X149910000Y-99770000D01*
X149910000Y-84470000D02*
X149910000Y-95870000D01*
X162510000Y-84470000D02*
X162510000Y-95870000D01*
X149910000Y-80570000D02*
X162510000Y-80570000D01*
X126865000Y-100085000D02*
X126865000Y-98815000D01*
X119515000Y-100085000D02*
X119515000Y-98815000D01*
X119515000Y-77715000D02*
X119515000Y-78985000D01*
X126865000Y-77715000D02*
X126865000Y-78985000D01*
X126865000Y-100085000D02*
X119515000Y-100085000D01*
X126865000Y-77715000D02*
X119515000Y-77715000D01*
X126865000Y-98815000D02*
X127800000Y-98815000D01*
X112291905Y-96972381D02*
X112291905Y-95972381D01*
X112672858Y-95972381D01*
X112768096Y-96020000D01*
X112815715Y-96067619D01*
X112863334Y-96162857D01*
X112863334Y-96305714D01*
X112815715Y-96400952D01*
X112768096Y-96448571D01*
X112672858Y-96496190D01*
X112291905Y-96496190D01*
X113815715Y-96972381D02*
X113244286Y-96972381D01*
X113530000Y-96972381D02*
X113530000Y-95972381D01*
X113434762Y-96115238D01*
X113339524Y-96210476D01*
X113244286Y-96258095D01*
X139533334Y-70302381D02*
X139200000Y-69826190D01*
X138961905Y-70302381D02*
X138961905Y-69302381D01*
X139342858Y-69302381D01*
X139438096Y-69350000D01*
X139485715Y-69397619D01*
X139533334Y-69492857D01*
X139533334Y-69635714D01*
X139485715Y-69730952D01*
X139438096Y-69778571D01*
X139342858Y-69826190D01*
X138961905Y-69826190D01*
X140485715Y-70302381D02*
X139914286Y-70302381D01*
X140200000Y-70302381D02*
X140200000Y-69302381D01*
X140104762Y-69445238D01*
X140009524Y-69540476D01*
X139914286Y-69588095D01*
X139533334Y-75382381D02*
X139200000Y-74906190D01*
X138961905Y-75382381D02*
X138961905Y-74382381D01*
X139342858Y-74382381D01*
X139438096Y-74430000D01*
X139485715Y-74477619D01*
X139533334Y-74572857D01*
X139533334Y-74715714D01*
X139485715Y-74810952D01*
X139438096Y-74858571D01*
X139342858Y-74906190D01*
X138961905Y-74906190D01*
X139914286Y-74477619D02*
X139961905Y-74430000D01*
X140057143Y-74382381D01*
X140295239Y-74382381D01*
X140390477Y-74430000D01*
X140438096Y-74477619D01*
X140485715Y-74572857D01*
X140485715Y-74668095D01*
X140438096Y-74810952D01*
X139866667Y-75382381D01*
X140485715Y-75382381D01*
X139533334Y-80462381D02*
X139200000Y-79986190D01*
X138961905Y-80462381D02*
X138961905Y-79462381D01*
X139342858Y-79462381D01*
X139438096Y-79510000D01*
X139485715Y-79557619D01*
X139533334Y-79652857D01*
X139533334Y-79795714D01*
X139485715Y-79890952D01*
X139438096Y-79938571D01*
X139342858Y-79986190D01*
X138961905Y-79986190D01*
X139866667Y-79462381D02*
X140485715Y-79462381D01*
X140152381Y-79843333D01*
X140295239Y-79843333D01*
X140390477Y-79890952D01*
X140438096Y-79938571D01*
X140485715Y-80033810D01*
X140485715Y-80271905D01*
X140438096Y-80367143D01*
X140390477Y-80414762D01*
X140295239Y-80462381D01*
X140009524Y-80462381D01*
X139914286Y-80414762D01*
X139866667Y-80367143D01*
X139533334Y-85542381D02*
X139200000Y-85066190D01*
X138961905Y-85542381D02*
X138961905Y-84542381D01*
X139342858Y-84542381D01*
X139438096Y-84590000D01*
X139485715Y-84637619D01*
X139533334Y-84732857D01*
X139533334Y-84875714D01*
X139485715Y-84970952D01*
X139438096Y-85018571D01*
X139342858Y-85066190D01*
X138961905Y-85066190D01*
X140390477Y-84875714D02*
X140390477Y-85542381D01*
X140152381Y-84494762D02*
X139914286Y-85209048D01*
X140533334Y-85209048D01*
X139533334Y-90622381D02*
X139200000Y-90146190D01*
X138961905Y-90622381D02*
X138961905Y-89622381D01*
X139342858Y-89622381D01*
X139438096Y-89670000D01*
X139485715Y-89717619D01*
X139533334Y-89812857D01*
X139533334Y-89955714D01*
X139485715Y-90050952D01*
X139438096Y-90098571D01*
X139342858Y-90146190D01*
X138961905Y-90146190D01*
X140438096Y-89622381D02*
X139961905Y-89622381D01*
X139914286Y-90098571D01*
X139961905Y-90050952D01*
X140057143Y-90003333D01*
X140295239Y-90003333D01*
X140390477Y-90050952D01*
X140438096Y-90098571D01*
X140485715Y-90193810D01*
X140485715Y-90431905D01*
X140438096Y-90527143D01*
X140390477Y-90574762D01*
X140295239Y-90622381D01*
X140057143Y-90622381D01*
X139961905Y-90574762D01*
X139914286Y-90527143D01*
X139533334Y-95702381D02*
X139200000Y-95226190D01*
X138961905Y-95702381D02*
X138961905Y-94702381D01*
X139342858Y-94702381D01*
X139438096Y-94750000D01*
X139485715Y-94797619D01*
X139533334Y-94892857D01*
X139533334Y-95035714D01*
X139485715Y-95130952D01*
X139438096Y-95178571D01*
X139342858Y-95226190D01*
X138961905Y-95226190D01*
X140390477Y-94702381D02*
X140200000Y-94702381D01*
X140104762Y-94750000D01*
X140057143Y-94797619D01*
X139961905Y-94940476D01*
X139914286Y-95130952D01*
X139914286Y-95511905D01*
X139961905Y-95607143D01*
X140009524Y-95654762D01*
X140104762Y-95702381D01*
X140295239Y-95702381D01*
X140390477Y-95654762D01*
X140438096Y-95607143D01*
X140485715Y-95511905D01*
X140485715Y-95273810D01*
X140438096Y-95178571D01*
X140390477Y-95130952D01*
X140295239Y-95083333D01*
X140104762Y-95083333D01*
X140009524Y-95130952D01*
X139961905Y-95178571D01*
X139914286Y-95273810D01*
X139533334Y-100782381D02*
X139200000Y-100306190D01*
X138961905Y-100782381D02*
X138961905Y-99782381D01*
X139342858Y-99782381D01*
X139438096Y-99830000D01*
X139485715Y-99877619D01*
X139533334Y-99972857D01*
X139533334Y-100115714D01*
X139485715Y-100210952D01*
X139438096Y-100258571D01*
X139342858Y-100306190D01*
X138961905Y-100306190D01*
X139866667Y-99782381D02*
X140533334Y-99782381D01*
X140104762Y-100782381D01*
X139533334Y-105862381D02*
X139200000Y-105386190D01*
X138961905Y-105862381D02*
X138961905Y-104862381D01*
X139342858Y-104862381D01*
X139438096Y-104910000D01*
X139485715Y-104957619D01*
X139533334Y-105052857D01*
X139533334Y-105195714D01*
X139485715Y-105290952D01*
X139438096Y-105338571D01*
X139342858Y-105386190D01*
X138961905Y-105386190D01*
X140104762Y-105290952D02*
X140009524Y-105243333D01*
X139961905Y-105195714D01*
X139914286Y-105100476D01*
X139914286Y-105052857D01*
X139961905Y-104957619D01*
X140009524Y-104910000D01*
X140104762Y-104862381D01*
X140295239Y-104862381D01*
X140390477Y-104910000D01*
X140438096Y-104957619D01*
X140485715Y-105052857D01*
X140485715Y-105100476D01*
X140438096Y-105195714D01*
X140390477Y-105243333D01*
X140295239Y-105290952D01*
X140104762Y-105290952D01*
X140009524Y-105338571D01*
X139961905Y-105386190D01*
X139914286Y-105481429D01*
X139914286Y-105671905D01*
X139961905Y-105767143D01*
X140009524Y-105814762D01*
X140104762Y-105862381D01*
X140295239Y-105862381D01*
X140390477Y-105814762D01*
X140438096Y-105767143D01*
X140485715Y-105671905D01*
X140485715Y-105481429D01*
X140438096Y-105386190D01*
X140390477Y-105338571D01*
X140295239Y-105290952D01*
X155448095Y-79144762D02*
X155590952Y-79192381D01*
X155829048Y-79192381D01*
X155924286Y-79144762D01*
X155971905Y-79097143D01*
X156019524Y-79001905D01*
X156019524Y-78906667D01*
X155971905Y-78811429D01*
X155924286Y-78763810D01*
X155829048Y-78716190D01*
X155638571Y-78668571D01*
X155543333Y-78620952D01*
X155495714Y-78573333D01*
X155448095Y-78478095D01*
X155448095Y-78382857D01*
X155495714Y-78287619D01*
X155543333Y-78240000D01*
X155638571Y-78192381D01*
X155876667Y-78192381D01*
X156019524Y-78240000D01*
X156971905Y-79192381D02*
X156400476Y-79192381D01*
X156686190Y-79192381D02*
X156686190Y-78192381D01*
X156590952Y-78335238D01*
X156495714Y-78430476D01*
X156400476Y-78478095D01*
X122428095Y-101052381D02*
X122428095Y-101861905D01*
X122475714Y-101957143D01*
X122523333Y-102004762D01*
X122618571Y-102052381D01*
X122809048Y-102052381D01*
X122904286Y-102004762D01*
X122951905Y-101957143D01*
X122999524Y-101861905D01*
X122999524Y-101052381D01*
X123999524Y-102052381D02*
X123428095Y-102052381D01*
X123713809Y-102052381D02*
X123713809Y-101052381D01*
X123618571Y-101195238D01*
X123523333Y-101290476D01*
X123428095Y-101338095D01*
M02*
